<?xml version="1.0" encoding="utf-8"?>
<!-- Generator: Adobe Illustrator 19.0.0, SVG Export Plug-In . SVG Version: 6.00 Build 0)  -->
<svg version="1.1"
	 id="Layer_1" xmlns:dc="http://purl.org/dc/elements/1.1/" xmlns:cc="http://creativecommons.org/ns#" xmlns:rdf="http://www.w3.org/1999/02/22-rdf-syntax-ns#" xmlns:svg="http://www.w3.org/2000/svg" xmlns:sodipodi="http://sodipodi.sourceforge.net/DTD/sodipodi-0.dtd" xmlns:inkscape="http://www.inkscape.org/namespaces/inkscape" inkscape:version="0.92.4 (5da689c313, 2019-01-14)" sodipodi:docname="cross-platform-app-development.svg"
	 xmlns="http://www.w3.org/2000/svg" xmlns:xlink="http://www.w3.org/1999/xlink" x="0px" y="0px" viewBox="6 93 624 607"
	 style="enable-background:new 6 93 624 607;" xml:space="preserve">
<style type="text/css">
	.st0{fill:#484848;}
	.st1{fill:none;stroke:#3D3D3D;stroke-width:13;stroke-miterlimit:10;}
	.st2{fill:#DBDADA;}
	.st3{fill:#B5DBAF;}
	.st4{fill:#59C7DB;}
	.st5{fill:#F2797B;}
	.st6{fill:#F8BBC0;}
	.st7{fill:#383838;}
	.st8{fill:#FFFFFF;}
	.st9{opacity:0.49;}
	.st10{fill:#ABCDEC;}
	.st11{fill:#C8E1F3;}
	.st12{fill:none;}
	.st13{fill:none;stroke:#F1673A;stroke-width:6;stroke-linecap:round;stroke-linejoin:round;stroke-miterlimit:10;}
	.st14{fill:#4EC7EC;}
	.st15{fill:#262626;}
	.st16{fill:#333333;}
	.st17{font-family:'ArialMT';}
	.st18{font-size:51.6285px;}
	.st19{fill:none;stroke:#5A5A5A;stroke-width:5;stroke-linecap:round;stroke-linejoin:round;stroke-miterlimit:10;}
	.st20{fill:#E13336;}
	.st21{fill:#B53132;}
	.st22{fill:#2287FF;}
	.st23{fill:#7F8082;}
	.st24{fill:url(#path3439_1_);stroke:#D6D6D6;stroke-linejoin:round;}
	.st25{fill:url(#path4771_1_);}
	.st26{fill:#293441;}
	.st27{fill:#2D3948;}
	.st28{fill:url(#path4761_1_);}
	.st29{fill:url(#path4794_1_);}
	.st30{fill:#2D3B48;}
	.st31{fill:url(#path4810_1_);stroke:#D6D6D6;stroke-linejoin:round;}
	.st32{opacity:0.449;fill:#363F49;enable-background:new    ;}
	.st33{opacity:0.3;fill:url(#path4832_1_);enable-background:new    ;}
	.st34{opacity:0.2;fill:url(#path4834_1_);enable-background:new    ;}
	.st35{display:none;}
	.st36{display:inline;}
	.st37{opacity:0.8;enable-background:new    ;}
	.st38{fill:#05F0FF;}
	.st39{opacity:0.9;enable-background:new    ;}
	.st40{fill:none;stroke:#06EFFE;stroke-width:0.9177;stroke-linecap:round;}
	.st41{fill:#FEFFFF;}
	.st42{fill:none;stroke:#06EFFE;stroke-width:0.9544;stroke-linecap:round;}
	.st43{fill:none;stroke:#D6D6D6;stroke-linejoin:round;}
	.st44{opacity:0.343;fill:#FFFFFF;stroke:#FFFFFF;enable-background:new    ;}
	.st45{fill:#85C441;}
	.st46{clip-path:url(#SVGID_2_);fill:#FFFFFF;}
	.st47{clip-path:url(#SVGID_4_);fill:#85C441;}
	.st48{clip-path:url(#SVGID_6_);fill:#85C441;}
	.st49{fill:#6D6E71;}
	
		.st50{fill:none;stroke:#7F7F7F;stroke-width:2;stroke-linecap:round;stroke-linejoin:round;stroke-miterlimit:10;stroke-dasharray:7;}
</style>
<sodipodi:namedview  inkscape:cy="303.5" inkscape:cx="312" inkscape:zoom="1.3311367" showgrid="false" guidetolerance="10" gridtolerance="10" objecttolerance="10" borderopacity="1" pagecolor="#ffffff" bordercolor="#666666" id="namedview386" inkscape:current-layer="Layer_1" inkscape:window-maximized="1" inkscape:window-y="-9" inkscape:window-x="-9" inkscape:window-height="1001" inkscape:pageshadow="2" inkscape:pageopacity="0" inkscape:window-width="1920">
	</sodipodi:namedview>
<g id="laptop">
	<path id="XMLID_71_" class="st0" d="M562.6,190.9H352.8v148.5c0,5.5,4.4,10,10,10h199.8V190.9z"/>
	<g id="XMLID_1_">
		<path id="XMLID_70_" class="st1" d="M352.7,349.2h206.1c3.4,0,6.2-3.2,6.2-7.1V196.4c0-4.4-3.1-7.9-6.8-7.9H359.8
			c-3.8,0-6.8,3.5-6.8,7.9L352.7,349.2L352.7,349.2z"/>
	</g>
	<g id="line">
		<rect id="XMLID_68_" x="525.1" y="208.2" class="st2" width="25.5" height="3.8"/>
		<rect id="XMLID_67_" x="409.8" y="208.2" class="st3" width="113.1" height="3.8"/>
		<rect id="XMLID_66_" x="381.6" y="208.2" class="st4" width="25.5" height="3.8"/>
		<rect id="XMLID_65_" x="522.5" y="218.3" class="st5" width="28.1" height="3.8"/>
		<rect id="XMLID_64_" x="395" y="218.3" class="st3" width="124.9" height="3.8"/>
		<rect id="XMLID_63_" x="363.8" y="218.3" class="st4" width="28.1" height="3.8"/>
		<rect id="XMLID_61_" x="525.1" y="229.1" class="st2" width="25.5" height="3.8"/>
		<rect id="XMLID_55_" x="409.8" y="229.1" class="st3" width="113.1" height="3.8"/>
		<rect id="XMLID_54_" x="381.6" y="229.1" class="st4" width="25.5" height="3.8"/>
	</g>
	<g id="line_1_">
		<rect id="XMLID_53_" x="522.5" y="296.9" class="st5" width="28.1" height="3.8"/>
		<rect id="XMLID_52_" x="451.2" y="296.9" class="st3" width="68.7" height="3.8"/>
		<rect id="XMLID_51_" x="434.1" y="296.9" class="st4" width="15.5" height="3.8"/>
		<rect id="XMLID_50_" x="525.1" y="307.7" class="st2" width="25.5" height="3.8"/>
		<rect id="XMLID_28_" x="409.8" y="307.7" class="st3" width="113.1" height="3.8"/>
		<rect id="XMLID_24_" x="381.6" y="307.7" class="st4" width="25.5" height="3.8"/>
		<rect id="XMLID_23_" x="525.1" y="318.5" class="st2" width="25.5" height="3.8"/>
		<rect id="XMLID_22_" x="409.8" y="318.5" class="st3" width="113.1" height="3.8"/>
		<rect id="XMLID_20_" x="381.6" y="318.5" class="st4" width="25.5" height="3.8"/>
		<rect id="XMLID_19_" x="522.5" y="328.5" class="st5" width="28.1" height="3.8"/>
		<rect id="XMLID_18_" x="383.2" y="328.5" class="st3" width="136.7" height="3.8"/>
	</g>
</g>
<g id="Phone">
	<g id="XMLID_2_">
		<path id="XMLID_27_" class="st6" d="M194.9,566c-10.9-0.3-19.7-9.4-19.4-20.4c0.3-10.9,9.4-19.7,20.4-19.4
			c4.6,0.2,8.9,1.8,12.2,4.6l0.2-31.9c-0.6-0.2-1-0.3-1.5-0.4c-0.5-0.2-1,0.1-1.4,0.4l-6.2,8.4c-0.3,0.3-0.6,0.6-1,0.5l-3.9-0.2
			c-0.4,0-0.8-0.2-1-0.6l-6.1-8.7c-0.3-0.3-0.7-0.6-1.1-0.6c-7.3,0.9-15.1,5.5-17.4,6.8c-0.4,0.3-0.6,0.8-0.6,1.2l1.5,10.3
			c0.1,0.4-0.1,0.8-0.3,1l-2.7,2.8c-0.3,0.3-0.7,0.4-1.1,0.3l-10.2-2.2c-0.5-0.1-1,0.1-1.4,0.4c-4.7,6.5-7.2,14.8-7.9,17.4
			c-0.2,0.5,0.1,1,0.4,1.4l8.9,6.4c0.3,0.2,0.5,0.6,0.5,1v4.1c0,0.4-0.2,0.9-0.6,1l-9.2,5.5c-0.4,0.3-0.7,0.9-0.6,1.5
			c2.7,10.3,6.1,15.7,7.3,17.5c0.3,0.4,0.7,0.6,1.2,0.5l9.9-1.5c0.4-0.1,0.9,0.1,1.1,0.4l3.1,3.4c0.3,0.3,0.3,0.7,0.3,1.1l-2.2,9.2
			c-0.1,0.5,0.1,1,0.6,1.4c8.3,5.3,15.2,7.1,17.5,7.6c0.4,0.1,0.9-0.1,1.3-0.5l6.2-8.3c0.2-0.3,0.6-0.5,1-0.5h3.8
			c0.4,0,0.8,0.2,1,0.5l6.2,8.7c0.3,0.4,0.7,0.6,1.2,0.5c0.9-0.2,1.9-0.3,2.8-0.5l0.2-35.1C204.4,564.4,199.9,566.1,194.9,566z"/>
		<path id="XMLID_17_" class="st7" d="M384.9,266.2H221.4c-9.3,0-16.8,7.5-16.8,16.8v343.5c0,9.3,7.5,16.8,16.8,16.8h163.5
			c9.3,0,16.8-7.5,16.8-16.8V283C401.7,273.7,394.2,266.2,384.9,266.2z M299,636.1c-11,0-11-17.1,0-17.1S309.9,636.1,299,636.1z"/>
		<path id="XMLID_5_" class="st8" d="M382.8,613.6H222.4c-5.9,0-10.8-4.9-10.8-10.8V285.2c0-5.9,4.9-10.8,10.8-10.8h160.4
			c5.9,0,10.8,4.9,10.8,10.8v317.6C393.5,608.7,388.8,613.6,382.8,613.6z"/>
		<g id="lines" class="st9">
			<path id="XMLID_29_" class="st10" d="M378.8,321.5H226.5c-0.9,0-1.5-0.8-1.5-1.6v-8.8c0-0.9,0.7-1.6,1.5-1.6h152.3
				c0.9,0,1.5,0.8,1.5,1.6v8.8C380.2,320.8,379.6,321.5,378.8,321.5z"/>
			<path id="XMLID_32_" class="st10" d="M378.8,342.3H226.5c-0.9,0-1.5-0.8-1.5-1.6v-8.8c0-0.9,0.7-1.6,1.5-1.6h152.3
				c0.9,0,1.5,0.8,1.5,1.6v8.8C380.2,341.5,379.6,342.3,378.8,342.3z"/>
			<path id="XMLID_34_" class="st10" d="M378.8,384.7H226.5c-0.9,0-1.5-0.8-1.5-1.6v-8.8c0-0.9,0.7-1.6,1.5-1.6h152.3
				c0.9,0,1.5,0.8,1.5,1.6v8.8C380.2,384,379.6,384.7,378.8,384.7z"/>
			<path id="XMLID_33_" class="st10" d="M297.8,364h-71.3c-0.9,0-1.5-0.8-1.5-1.6v-8.8c0-0.9,0.7-1.6,1.5-1.6h71.3
				c0.9,0,1.5,0.8,1.5,1.6v8.8C299.3,363.3,298.7,364,297.8,364z"/>
		</g>
		<path id="XMLID_3_" class="st7" d="M343.5,289.5h-77.1c-4.2,0-7.5-3.3-7.5-7.5v-7.5h91.9v7.5C350.9,286.1,347.6,289.5,343.5,289.5
			z"/>
		<rect id="XMLID_6_" x="224.9" y="399.8" class="st11" width="155.4" height="197.1"/>
	</g>
	<g id="XMLID_39_">
		<line id="XMLID_12_" class="st12" x1="234.4" y1="511.6" x2="234.4" y2="513.6"/>
		<line id="XMLID_14_" class="st12" x1="204.5" y1="517.2" x2="204.5" y2="515.1"/>
		<line id="XMLID_9_" class="st12" x1="234.4" y1="515.1" x2="234.4" y2="517.2"/>
	</g>
	<path id="XMLID_4_" class="st13" d="M636.1,378.6"/>
</g>
<g id="XMLID_7_">
	<path id="XMLID_21_" class="st14" d="M553.6,435c-0.9-0.3-1.7-0.6-2.6-0.9c0.2-0.6,0.3-1.2,0.4-1.8c2-9.6,0.7-17.3-3.6-19.8
		c-4.1-2.5-10.9,0.1-17.6,6.2c-0.7,0.6-1.4,1.2-2,1.9c-0.4-0.4-0.9-0.9-1.4-1.2c-7.1-6.5-14.3-9.2-18.6-6.7
		c-4.1,2.5-5.3,9.7-3.6,18.7c0.2,0.9,0.3,1.8,0.6,2.7c-1,0.3-2,0.6-2.9,0.9c-8.3,3-13.7,7.7-13.7,12.5c0,5,5.7,10.1,14.4,13.1
		c0.7,0.3,1.4,0.4,2.1,0.7c-0.3,0.9-0.4,2-0.6,2.9c-1.6,8.9-0.3,16,3.8,18.4c4.3,2.5,11.4-0.1,18.2-6.2c0.6-0.5,1.1-1,1.6-1.5
		c0.7,0.7,1.5,1.4,2.1,2c6.7,5.9,13.3,8.3,17.4,5.9c4.3-2.5,5.6-10.1,3.8-19.3c-0.2-0.7-0.3-1.5-0.4-2.1c0.5-0.2,0.9-0.3,1.5-0.4
		c9.1-3.1,14.9-8,14.9-13.2C567.6,442.7,562.1,438,553.6,435z M551.6,457.4c-0.4,0.2-0.9,0.3-1.4,0.4c-1-3.2-2.3-6.7-4-10.3
		c1.6-3.5,2.8-6.9,3.8-10.1c0.9,0.3,1.6,0.5,2.3,0.8c7.3,2.6,11.7,6.4,11.7,9.3C564.3,450.7,559.5,454.8,551.6,457.4z M548.5,464
		c0.8,4.1,0.9,7.8,0.3,10.7c-0.4,2.6-1.5,4.4-2.6,5c-2.5,1.5-7.8-0.4-13.5-5.6c-0.7-0.6-1.4-1.2-2-1.9c2.2-2.5,4.4-5.4,6.6-8.6
		c3.8-0.3,7.4-0.9,10.7-1.7C548.1,462.7,548.3,463.3,548.5,464z M515.7,479.5c-2.5,0.9-4.4,0.9-5.6,0.2c-2.5-1.5-3.5-7.2-2.1-14.8
		c0.2-0.9,0.3-1.8,0.6-2.7c3.2,0.7,6.8,1.3,10.6,1.6c2.2,3.2,4.4,6,6.8,8.6c-0.5,0.5-1,0.9-1.5,1.5
		C521.4,476.5,518.4,478.5,515.7,479.5z M504.3,457.4c-3.8-1.4-7-3.1-9.2-5c-2-1.7-3-3.4-3-4.8c0-3,4.3-6.7,11.5-9.2
		c0.9-0.3,1.8-0.6,2.7-0.9c0.9,3.2,2.3,6.8,3.8,10.2c-1.6,3.5-2.9,7-3.8,10.3C505.5,457.8,504.9,457.6,504.3,457.4z M508.1,430.7
		c-1.5-7.8-0.5-13.7,2-15.1c2.7-1.6,8.5,0.7,14.6,6.2c0.4,0.3,0.8,0.7,1.2,1.1c-2.3,2.5-4.5,5.4-6.8,8.6c-3.8,0.3-7.3,0.9-10.5,1.7
		C508.4,432.4,508.3,431.6,508.1,430.7z M542.1,439.4c-0.8-1.4-1.6-2.7-2.4-4c2.5,0.3,4.9,0.8,7.2,1.3c-0.7,2.2-1.5,4.5-2.5,6.9
		C543.7,442.2,542.9,440.7,542.1,439.4z M528.3,425.5c1.5,1.7,3.1,3.7,4.6,5.7c-1.5-0.1-3.1-0.1-4.7-0.1c-1.6,0-3.1,0.1-4.6,0.1
		C525.1,429.2,526.6,427.3,528.3,425.5z M514.3,439.4c-0.8,1.4-1.5,2.7-2.2,4.2c-0.9-2.4-1.9-4.8-2.5-7c2.2-0.5,4.6-0.9,7.2-1.3
		C515.9,436.6,515.1,438,514.3,439.4L514.3,439.4z M516.7,460.1c-2.6-0.3-5-0.7-7.3-1.2c0.7-2.3,1.5-4.7,2.6-7.2
		c0.7,1.4,1.5,2.8,2.2,4.2l0,0C515.1,457.3,516,458.7,516.7,460.1z M528.4,469.8c-1.6-1.8-3.2-3.8-4.8-5.8c1.5,0.1,3.1,0.1,4.6,0.1
		c1.6,0,3.2-0.1,4.8-0.1C531.4,466.1,529.9,468.1,528.4,469.8z M544.4,451.6c1.1,2.5,2,4.9,2.7,7.1c-2.3,0.5-4.8,0.9-7.4,1.3
		c0.9-1.4,1.6-2.7,2.4-4.1S543.7,453.1,544.4,451.6z M539.2,454.2c-1.2,2.2-2.5,4.3-3.8,6.2c-2.3,0.2-4.8,0.3-7.2,0.3
		s-4.9-0.1-7.2-0.3c-1.4-2-2.6-4.1-3.8-6.2l0,0c-1.2-2.1-2.3-4.4-3.3-6.5c1-2.2,2.1-4.4,3.3-6.5l0,0c1.2-2.1,2.5-4.3,3.8-6.2
		c2.3-0.2,4.8-0.3,7.2-0.3l0,0c2.5,0,4.9,0.1,7.2,0.3c1.4,2,2.6,4,3.8,6.2c1.2,2.2,2.3,4.4,3.4,6.5
		C541.6,449.8,540.5,451.9,539.2,454.2z M546.1,415.5c2.7,1.6,3.7,7.9,2,16.2c-0.1,0.5-0.2,1.1-0.3,1.6c-3.2-0.8-6.8-1.4-10.5-1.7
		c-2.1-3.2-4.4-6-6.7-8.6c0.6-0.6,1.2-1.2,1.9-1.7C538.3,416.1,543.7,414.2,546.1,415.5z M528.2,440.4c3.8,0,7,3.2,7,7.2
		c0,4-3.2,7.2-7,7.2c-3.8,0-7-3.2-7-7.2C521.2,443.6,524.3,440.4,528.2,440.4z"/>
</g>
<g id="XMLID_62_">
	<path id="bg" class="st15" d="M170.5,477.3H57c-3.6,0-6.5-2.9-6.5-6.5v-91.2c0-3.6,2.9-6.5,6.5-6.5h113.5c3.6,0,6.5,2.9,6.5,6.5
		v91.2C177.1,474.4,174.1,477.3,170.5,477.3z"/>
	<rect id="XMLID_60_" x="58.6" y="390.2" class="st8" width="111.1" height="78.8"/>
	<circle id="XMLID_59_" class="st8" cx="61.1" cy="381.7" r="2.7"/>
	<circle id="XMLID_58_" class="st8" cx="69.2" cy="381.7" r="2.7"/>
	<path id="XMLID_57_" class="st6" d="M166.3,384.5h-52.3c-1.5,0-2.7-1.2-2.7-2.7l0,0c0-1.5,1.2-2.7,2.7-2.7h52.3
		c1.5,0,2.7,1.2,2.7,2.7l0,0C168.9,383.2,167.7,384.5,166.3,384.5z"/>
	<circle id="XMLID_56_" class="st8" cx="77.4" cy="381.7" r="2.7"/>
	<text id="XMLID_49_" transform="matrix(0.6948 0 0 1 86.5815 444.6611)" class="st16 st17 st18">&lt;/&gt;</text>
</g>
<g id="XMLID_8_">
	<path id="XMLID_15_" class="st19" d="M425.1,396.4h-2.2v-6.9h2.2c1.4,0,2.7-0.9,3.2-2.1v-0.1c0.5-1.3,0.3-2.7-0.8-3.8L426,382
		l4.9-4.9l1.5,1.5c1,1,2.5,1.3,3.8,0.8h0.1c1.3-0.5,2.1-1.8,2.1-3.2V374h6.9v2.2c0,1.4,0.9,2.7,2.1,3.2h0.1c1.3,0.5,2.7,0.3,3.8-0.8
		l1.5-1.5l4.9,4.9l-1.5,1.5c-1,1-1.3,2.5-0.8,3.8v0.1c0.5,1.3,1.8,2.1,3.2,2.1h2.2v6.9h-2.2c-1.4,0-2.7,0.9-3.2,2.1v0.1
		c-0.5,1.3-0.3,2.7,0.8,3.8l1.5,1.5l-4.9,4.9l-1.5-1.5c-1-1-2.5-1.3-3.8-0.8h-0.1c-1.3,0.5-2.1,1.8-2.1,3.2v2.2h-6.9v-2.2
		c0-1.4-0.9-2.7-2.1-3.2h-0.1c-1.3-0.5-2.7-0.3-3.8,0.8l-1.5,1.5L426,404l1.5-1.5c1-1,1.3-2.5,0.8-3.8v-0.1
		C427.8,397.3,426.5,396.4,425.1,396.4z"/>
	<path id="XMLID_13_" class="st19" d="M447.9,393c0,0.5-0.1,1-0.2,1.5c-0.2,0.5-0.3,1-0.6,1.5c-0.5,0.9-1.3,1.7-2.2,2.2
		c-0.4,0.3-0.9,0.4-1.5,0.6c-0.5,0.2-1,0.2-1.5,0.2s-1-0.1-1.5-0.2c-0.5-0.2-1-0.3-1.5-0.6c-0.9-0.5-1.7-1.3-2.2-2.2
		c-0.3-0.4-0.4-0.9-0.6-1.5c-0.2-0.5-0.2-1-0.2-1.5s0.1-1,0.2-1.5c0.2-0.5,0.3-1,0.6-1.5c0.5-0.9,1.3-1.7,2.2-2.2
		c0.4-0.3,0.9-0.4,1.5-0.6c0.5-0.2,1-0.2,1.5-0.2s1,0.1,1.5,0.2c0.5,0.2,1,0.3,1.5,0.6c0.9,0.5,1.7,1.3,2.2,2.2
		c0.3,0.4,0.4,0.9,0.6,1.5C447.8,391.9,447.9,392.4,447.9,393z"/>
</g>
<g id="XMLID_16_">
	<path id="XMLID_73_" class="st20" d="M72,226.2l32.1-11.4L137,226l-5.4,42.4l-27.5,15.3L77,268.6L72,226.2z"/>
	<path id="XMLID_72_" class="st21" d="M136.9,225.9L104,214.7v68.9l27.5-15.3L136.9,225.9L136.9,225.9z"/>
	<path id="XMLID_69_" class="st8" d="M104.2,222.8L104.2,222.8l-19.9,44.5l7.4-0.1l4-10h8.6h0.1h9.3l4.4,10.2l7,0.1L104.2,222.8
		L104.2,222.8z M104.2,237l6.8,14.1h-6.5h-0.3h-5.9L104.2,237L104.2,237z"/>
</g>
<g id="IONIC">
	<path id="XMLID_78_" class="st22" d="M226.7,159.8c-8.4,0-15.1,6.8-15.1,15.1c0,8.4,6.8,15.1,15.1,15.1s15.1-6.8,15.1-15.1l0,0
		C241.8,166.7,235,159.8,226.7,159.8z"/>
	<circle id="XMLID_77_" class="st22" cx="248.4" cy="154.3" r="6.9"/>
	<path id="XMLID_76_" class="st22" d="M256.8,161.2l-0.3-0.6l-0.4,0.5c-1.1,1.3-2.6,2.2-4.2,2.9l-0.4,0.2l0.2,0.4
		c5.7,13.8-0.8,29.6-14.6,35.4c-13.8,5.7-29.6-0.8-35.4-14.6c-5.7-13.8,0.8-29.6,14.6-35.4c7.1-2.9,15.1-2.7,22.1,0.5l0.4,0.2
		l0.2-0.4c0.7-1.6,1.7-2.9,3.1-4l0.5-0.4l-0.6-0.3c-4.7-2.4-9.9-3.7-15.2-3.7c-18.3,0-33.2,14.8-33.2,33.2
		c0,18.3,14.8,33.2,33.2,33.2c18.3,0,33.2-14.8,33.2-33.2C259.8,170.2,258.8,165.5,256.8,161.2L256.8,161.2z"/>
</g>
<g id="g5122" transform="matrix(0.51194041,0,0,0.51194041,-27.886942,-31.151793)">
	<path id="path4824" inkscape:connector-curvature="0" sodipodi:nodetypes="cccc" class="st23" d="M1012.6,1253.6l-9.9,20.7
		l-6.8-25.7L1012.6,1253.6z"/>
	<path id="path4822" inkscape:connector-curvature="0" sodipodi:nodetypes="cccc" class="st23" d="M921.4,1253.6l6.8,20.7l6.8-25.7
		L921.4,1253.6z"/>
	
		<linearGradient id="path3439_1_" gradientUnits="userSpaceOnUse" x1="157302.5781" y1="67406.3047" x2="157167" y2="67318.9609" gradientTransform="matrix(1.800573e-002 0 0 1.800573e-002 -1803.1561 52.6081)">
		<stop  offset="0" style="stop-color:#ACACAC"/>
		<stop  offset="1" style="stop-color:#E9E9E9"/>
	</linearGradient>
	<path id="path3439" inkscape:connector-curvature="0" class="st24" d="M890,1185.2L890,1185.2l14,89h24.1l-2-20.7h12.4l1.5,20.7
		h50.5l1.5-20.7h12.3l-2,20.7h24.4l13.9-89l0,0C1040.9,1185.2,890,1185.2,890,1185.2z"/>
	
		<radialGradient id="path4771_1_" cx="-4057.4951" cy="-56092.5664" r="6.9587" gradientTransform="matrix(1.661035e-002 -0.2071 -0.1061 -8.517249e-003 -4961.4229 -80.5407)" gradientUnits="userSpaceOnUse">
		<stop  offset="0" style="stop-color:#25303B"/>
		<stop  offset="1" style="stop-color:#25303B;stop-opacity:0"/>
	</radialGradient>
	<path id="path4771" inkscape:connector-curvature="0" sodipodi:nodetypes="ccccc" class="st25" d="M924.5,1240l7.3-27.2l-0.5-54.9
		l-13.6,27.5L924.5,1240z"/>
	<path id="path4776" inkscape:connector-curvature="0" sodipodi:nodetypes="ccccc" class="st26" d="M976.7,1152.4h30.1l-0.6,66.5
		h-31.8L976.7,1152.4z"/>
	<path id="path4778" inkscape:connector-curvature="0" sodipodi:nodetypes="ccccc" class="st26" d="M954.9,1152.5h-29.3l0.7,66.2
		H956L954.9,1152.5z"/>
	<path id="path4735" inkscape:connector-curvature="0" sodipodi:nodetypes="ccccc" class="st27" d="M928.6,1212.8l-4.1,27.2h82
		l-4.9-27L928.6,1212.8z"/>
	
		<linearGradient id="path4761_1_" gradientUnits="userSpaceOnUse" x1="156219.3281" y1="65771.8594" x2="156212.6563" y2="65692.5781" gradientTransform="matrix(1.800573e-002 0 0 1.800573e-002 -1803.1561 52.6081)">
		<stop  offset="0" style="stop-color:#24303A"/>
		<stop  offset="1" style="stop-color:#394958"/>
	</linearGradient>
	<path id="path4761" inkscape:connector-curvature="0" sodipodi:nodetypes="ccccc" class="st28" d="M1006.6,1240l-7.1-27l0.3-55.3
		l13.8,27.6L1006.6,1240z"/>
	
		<linearGradient id="path4794_1_" gradientUnits="userSpaceOnUse" x1="-163995.7656" y1="65771.5469" x2="-164002.4375" y2="65692.2656" gradientTransform="matrix(-1.800573e-002 0 0 1.800573e-002 -2031.3422 52.6081)">
		<stop  offset="0" style="stop-color:#24303A"/>
		<stop  offset="1" style="stop-color:#394958"/>
	</linearGradient>
	<path id="path4794" inkscape:connector-curvature="0" sodipodi:nodetypes="ccccc" class="st29" d="M924.6,1240l7.2-27.2l-0.5-54.9
		l-13.6,27.5L924.6,1240z"/>
	<path id="path4739" inkscape:connector-curvature="0" sodipodi:nodetypes="ccccc" class="st30" d="M951.8,1167.8l2.7,57.7h21.1
		l3.4-57.7H951.8z"/>
	
		<linearGradient id="path4810_1_" gradientUnits="userSpaceOnUse" x1="156686.6719" y1="61173.7539" x2="156575" y2="61184.957" gradientTransform="matrix(1.800573e-002 0 0 1.800573e-002 -1803.1561 52.6081)">
		<stop  offset="0" style="stop-color:#E5E5E5"/>
		<stop  offset="1" style="stop-color:#FFFFFF"/>
	</linearGradient>
	<path id="path4810" inkscape:connector-curvature="0" sodipodi:nodetypes="ccccccccccccc" class="st31" d="M1040.9,1185.2
		l-34.5-55.2h-82l-34.3,55.2h27.6l13.5-27.4h22.2l-1.6,9.9h27.2l-1.5-10.2h22.1l13.8,27.6H1040.9L1040.9,1185.2z"/>
	<path id="path4826" inkscape:connector-curvature="0" sodipodi:nodetypes="ccccccc" class="st32" d="M977.6,1157.6h22.4l13.5,27.6
		l-6.9,54.7h-52.1l26.9-54.7L977.6,1157.6z"/>
	
		<linearGradient id="path4832_1_" gradientUnits="userSpaceOnUse" x1="152054.7344" y1="62313.9414" x2="152054.7344" y2="62368.6445" gradientTransform="matrix(1.800573e-002 0 0 1.800573e-002 -1788.3069 63.2147)">
		<stop  offset="0" style="stop-color:#FFFFFF"/>
		<stop  offset="0.5" style="stop-color:#FFFFFF;stop-opacity:0.5317"/>
		<stop  offset="1" style="stop-color:#FFFFFF;stop-opacity:0"/>
	</linearGradient>
	<path id="path4832" inkscape:connector-curvature="0" sodipodi:nodetypes="ccccc" class="st33" d="M981.4,1185.2l-26.9,54.7h-30
		l-6.8-54.7H981.4z"/>
	
		<linearGradient id="path4834_1_" gradientUnits="userSpaceOnUse" x1="152049.9844" y1="62316.4453" x2="152049.9844" y2="62289.1055" gradientTransform="matrix(1.800573e-002 0 0 1.800573e-002 -1788.3069 63.2147)">
		<stop  offset="0" style="stop-color:#FFFFFF"/>
		<stop  offset="1" style="stop-color:#FFFFFF;stop-opacity:0"/>
	</linearGradient>
	<path id="path4834" inkscape:connector-curvature="0" sodipodi:nodetypes="ccccccc" class="st34" d="M931.2,1157.9h22.2l-1.6,9.9
		H979l2.4,17.4h-63.8L931.2,1157.9z"/>
	<g id="g4749" transform="translate(-14.849242,-10.606602)" class="st35">
		<g id="g4722" transform="matrix(0.89997913,0,0,0.97774567,-1.4952307,573.7235)" class="st36">
			<g id="ellipse3463" class="st37">
				<ellipse id="XMLID_113_" class="st38" cx="1069.5" cy="656.3" rx="1.1" ry="4"/>
			</g>
			<g id="ellipse4390" class="st39">
				<ellipse id="XMLID_112_" class="st8" cx="1069.5" cy="656.4" rx="0.9" ry="3.5"/>
				<ellipse id="XMLID_111_" class="st40" cx="1069.5" cy="656.4" rx="0.9" ry="3.5"/>
			</g>
			<g id="ellipse4720" class="st39">
				<ellipse id="XMLID_110_" class="st41" cx="1069.5" cy="656.4" rx="0.9" ry="3.2"/>
				<ellipse id="XMLID_109_" class="st42" cx="1069.5" cy="656.4" rx="0.9" ry="3.2"/>
			</g>
		</g>
		<g id="g4727" transform="matrix(0.89997913,0,0,0.97774567,-102.68784,578.19963)" class="st36">
			<g id="ellipse4729" class="st37">
				<ellipse id="XMLID_108_" class="st8" cx="1154.3" cy="652.8" rx="1.1" ry="4"/>
			</g>
			<g id="ellipse4731" class="st39">
				<ellipse id="XMLID_107_" class="st8" cx="1154.3" cy="653" rx="0.9" ry="3.5"/>
				<ellipse id="XMLID_106_" class="st40" cx="1154.3" cy="653" rx="0.9" ry="3.5"/>
			</g>
			<g id="ellipse4733" class="st39">
				<ellipse id="XMLID_105_" class="st8" cx="1154.3" cy="653" rx="0.9" ry="3.2"/>
				<ellipse id="XMLID_104_" class="st42" cx="1154.3" cy="653" rx="0.9" ry="3.2"/>
			</g>
		</g>
	</g>
	<path id="path4856" inkscape:connector-curvature="0" sodipodi:nodetypes="ccccccccccc" class="st43" d="M931.2,1157.9h22.2
		l-1.6,9.9H979l-1.5-10.2h22.4l13.5,27.6l-6.9,54.7h-82l-6.8-54.7L931.2,1157.9z"/>
	<path id="path4858" inkscape:connector-curvature="0" class="st44" d="M1013.3,1185.2h-95.7"/>
</g>
<g id="XMLID_139_">
	<g id="XMLID_140_">
		
			<image style="overflow:visible;opacity:0.8;enable-background:new    ;" width="50" height="82" id="XMLID_103_" xlink:href="BC84B79E.png"  transform="matrix(0.2214 0 0 0.2281 450.027 576.6581)">
		</image>
		<g id="XMLID_141_">
			<g id="XMLID_142_">
				<ellipse id="XMLID_102_" class="st8" cx="455.5" cy="586" rx="2.5" ry="6.2"/>
			</g>
		</g>
	</g>
</g>
<g id="XMLID_115_">
	<g id="XMLID_134_">
		
			<image style="overflow:visible;opacity:0.8;enable-background:new    ;" width="50" height="78" id="XMLID_101_" xlink:href="BC84B7A2.png"  transform="matrix(0.2214 0 0 0.2366 472.9071 576.166)">
		</image>
		<g id="XMLID_135_">
			<g id="XMLID_136_">
				<ellipse id="XMLID_98_" class="st8" cx="478.4" cy="585.4" rx="2.5" ry="6.2"/>
			</g>
		</g>
	</g>
</g>
<g id="XMLID_114_">
	<path id="XMLID_214_" class="st45" d="M320.9,476.9c0,1.3-1,2.3-2.3,2.3h-33.8c-1.3,0-2.3-1-2.3-2.3v-30.1c0-1.3,1-2.3,2.3-2.3
		h33.8c1.3,0,2.3,1,2.3,2.3V476.9L320.9,476.9z"/>
	<polygon id="XMLID_213_" class="st45" points="320.9,460.3 282.5,460.3 282.5,444.5 320.9,444.5 	"/>
	<path id="XMLID_212_" class="st45" d="M331.2,465.6c0,2.2-1.8,4.1-4.1,4.1l0,0c-2.2,0-4.1-1.8-4.1-4.1v-18.4c0-2.2,1.8-4.1,4.1-4.1
		l0,0c2.2,0,4.1,1.8,4.1,4.1V465.6L331.2,465.6z"/>
	<path id="XMLID_211_" class="st45" d="M280.4,465.6c0,2.2-1.8,4.1-4.1,4.1l0,0c-2.2,0-4.1-1.8-4.1-4.1v-18.4c0-2.2,1.8-4.1,4.1-4.1
		l0,0c2.2,0,4.1,1.8,4.1,4.1V465.6L280.4,465.6z"/>
	<path id="XMLID_210_" class="st45" d="M282.7,442.2c0,0,0.4-16.2,19.1-16.2c18.5,0.1,19.1,16.2,19.1,16.2H282.7L282.7,442.2z"/>
	<path id="XMLID_209_" class="st8" d="M295.7,433.9c0,1.3-1,2.3-2.3,2.3c-1.3,0-2.3-1-2.3-2.3c0-1.3,1-2.3,2.3-2.3
		C294.6,431.6,295.7,432.6,295.7,433.9L295.7,433.9z"/>
	<g id="g369">
		<g>
			<defs>
				<rect id="SVGID_1_" x="272.3" y="422.6" width="58.8" height="70.8"/>
			</defs>
			<clipPath id="SVGID_2_">
				<use xlink:href="#SVGID_1_"  style="overflow:visible;"/>
			</clipPath>
			<path id="XMLID_208_" class="st46" d="M312.3,433.9c0,1.3-1,2.3-2.3,2.3s-2.3-1-2.3-2.3c0-1.3,1-2.3,2.3-2.3
				C311.3,431.6,312.3,432.6,312.3,433.9L312.3,433.9z"/>
		</g>
		<g>
			<defs>
				<rect id="SVGID_3_" x="272.3" y="422.6" width="58.8" height="70.8"/>
			</defs>
			<clipPath id="SVGID_4_">
				<use xlink:href="#SVGID_3_"  style="overflow:visible;"/>
			</clipPath>
			<path id="XMLID_207_" class="st47" d="M292.8,428.2c0.1,0.1,0.3,0.1,0.4-0.1l0,0c0.2-0.2,0.3-0.3,0.3-0.4l-3.6-5
				c-0.1-0.1-0.3-0.1-0.4,0.1l0,0c-0.2,0.2-0.3,0.3-0.3,0.4L292.8,428.2L292.8,428.2z"/>
		</g>
		<g>
			<defs>
				<rect id="SVGID_5_" x="272.3" y="422.6" width="58.8" height="70.8"/>
			</defs>
			<clipPath id="SVGID_6_">
				<use xlink:href="#SVGID_5_"  style="overflow:visible;"/>
			</clipPath>
			<path id="XMLID_206_" class="st48" d="M310.7,428.2c-0.1,0.1-0.3,0.1-0.4-0.1l0,0c-0.2-0.2-0.3-0.3-0.3-0.4l3.6-5
				c0.1-0.1,0.3-0.1,0.4,0.1l0,0c0.2,0.2,0.3,0.3,0.3,0.4L310.7,428.2L310.7,428.2z"/>
		</g>
	</g>
	<path id="XMLID_204_" class="st45" d="M313.7,489.4c0,2.2-1.8,4.1-4.1,4.1l0,0c-2.2,0-4.1-1.8-4.1-4.1V471c0-2.2,1.8-4.1,4.1-4.1
		l0,0c2.2,0,4.1,1.8,4.1,4.1V489.4L313.7,489.4z"/>
	<path id="XMLID_203_" class="st45" d="M297.9,489.4c0,2.2-1.8,4.1-4.1,4.1l0,0c-2.2,0-4.1-1.8-4.1-4.1V471c0-2.2,1.8-4.1,4.1-4.1
		l0,0c2.2,0,4.1,1.8,4.1,4.1V489.4L297.9,489.4z"/>
</g>
<g id="XMLID_137_">
	<path id="XMLID_217_" class="st49" d="M305.2,521.7c4.3-5.6,10.1-5.6,10.1-5.6s0.9,5.2-3.3,10.3c-4.5,5.4-9.6,4.5-9.6,4.5
		S301.5,526.7,305.2,521.7L305.2,521.7z"/>
	<path id="XMLID_216_" class="st49" d="M302.9,534.6c2.1,0,6.2-3,11.5-3c9.1,0,12.7,6.4,12.7,6.4s-7,3.6-7,12.2
		c0,9.7,8.7,13.1,8.7,13.1s-6.1,17.1-14.3,17.1c-3.8,0-6.7-2.6-10.7-2.6s-8,2.7-10.7,2.7c-7.5,0-16.9-16.2-16.9-29.2
		c0-12.8,8-19.6,15.6-19.6C296.6,531.8,300.5,534.6,302.9,534.6L302.9,534.6z"/>
</g>
<polyline id="XMLID_138_" class="st50" points="104,283.7 104.6,342.3 204.5,342.3 "/>
<line id="XMLID_144_" class="st50" x1="226.7" y1="208" x2="226.7" y2="266.2"/>
<polyline id="XMLID_143_" class="st50" points="345.6,229.1 308.8,229.1 308.8,266.2 "/>
<polyline id="XMLID_145_" class="st50" points="526.1,358.1 526.1,390.2 466.4,390.2 "/>
<line id="XMLID_147_" class="st50" x1="401.7" y1="392.9" x2="418.3" y2="392.9"/>
<polyline id="XMLID_146_" class="st50" points="461.6,547.4 461.6,517.2 401.7,517.2 "/>
<polyline id="XMLID_148_" class="st50" points="526.6,476.3 526.1,498.4 401.7,498.4 "/>
<polyline id="XMLID_149_" class="st50" points="110.9,477.3 110.9,548.4 155.8,548.8 "/>
</svg>
